<svg xmlns="http://www.w3.org/2000/svg" width="44" height="39" fill="currentColor" viewBox="0 0 44 39">
  <g class="pmc-icon" clip-path="url(#a)">
    <path d="M39.78 14.1h-.6c-.37-2.8-1.78-5.41-3.93-7.26V1.52c0-.84-.68-1.52-1.52-1.52-3 0-5.86 1.43-7.66 3.83l-.15.2h-6.29c-6.99 0-12.75 5.3-13.51 12.08h-.59c-1.38 0-2.51-1.13-2.51-2.51v-2.01a1.52 1.52 0 1 0-3.04 0v2.01c0 3.06 2.49 5.54 5.54 5.54h.5v.5c0 2.47.82 4.85 2.24 6.81.8-.63 1.71-1.13 2.7-1.45a8.593 8.593 0 0 1-1.9-5.36v-2.01c0-5.82 4.74-10.57 10.57-10.57h7.05c.48 0 .93-.23 1.22-.61l.6-.8a6.597 6.597 0 0 1 3.71-2.43v4.34c0 .48.23.93.61 1.21a8.596 8.596 0 0 1 3.42 6.84c0 .84.68 1.52 1.52 1.52h2.01c.27 0 .5.22.5.5v4.03c0 .27-.22.5-.5.5h-2.01c-.65 0-1.23.42-1.44 1.04-.26.79-.74 1.48-1.34 2.03.97.39 1.85.96 2.6 1.66.46-.52.88-1.07 1.19-1.69h1a3.53 3.53 0 0 0 3.53-3.53v-4.03a3.53 3.53 0 0 0-3.53-3.53l.01-.01Z" class="body"/>
    <path d="M31.25 15.61c0-.84-.68-1.52-1.52-1.52h-.02c-.84 0-1.51.68-1.51 1.52s.69 1.52 1.53 1.52c.84 0 1.52-.68 1.52-1.52Z" class="eye"/>
    <path d="M35.04 28.77a5.51 5.51 0 0 0-2.8-1.06c-.17-.01-.33-.05-.5-.05-3.06 0-5.55 2.49-5.55 5.55 0 3.06 2.49 5.55 5.55 5.55 3.06 0 5.55-2.49 5.55-5.55 0-1.82-.89-3.42-2.25-4.44Zm-3.3 6.95c-1.39 0-2.51-1.13-2.51-2.51s1.13-2.51 2.51-2.51 2.51 1.13 2.51 2.51-1.13 2.51-2.51 2.51Z" class="front wheel"/>
    <path d="M13.63 27.65c-.19 0-.37.04-.55.06-.98.1-1.89.44-2.66.98-1.41 1.01-2.34 2.65-2.34 4.51 0 3.06 2.49 5.55 5.55 5.55 3.06 0 5.55-2.49 5.55-5.55 0-3.06-2.49-5.55-5.55-5.55Zm0 8.07c-1.39 0-2.51-1.13-2.51-2.51s1.13-2.51 2.51-2.51 2.51 1.13 2.51 2.51-1.13 2.51-2.51 2.51Z" class="back wheel"/>
  </g>
  <defs>
    <clipPath id="a" class="a">
      <path d="M0 0h43.31v38.75H0z"/>
    </clipPath>
  </defs>
</svg>
